# xmcd
#
# Track frame offsets: 
#        150
#        15585
#        31957
#        49653
#        65454
#        80731
#        97975
#        116181
#        132597
#        150472
#        167290
#        181235
#        197145
#        210923
#        224063
#        242712
#
# Disc length: 3469 seconds
#
# Revision: 0
# Processed by: cddbd v1.5.2PL0 Copyright (c) Steve Scherf et al.
# Submitted via: ExactAudioCopy v0.99pb4
#
DISCID=d90d8b10
DTITLE=Frans Duijts - Alles Met Je Delen
DYEAR=2012
DGENRE=Chanson
TTITLE0=Laat Me Nooit Alleen
TTITLE1=Jij Denkt Maar Dat Je Alles Mag Van Mij
TTITLE2=Morgen Is Pas Morgen
TTITLE3=Waarom Kon Ik Jou Niet Vertrouwen
TTITLE4=Angelina
TTITLE5=Helemaal Verloren
TTITLE6=Vriend
TTITLE7=In Ons Café (Met Django Wagner)
TTITLE8=Hij Speelde Accordeon
TTITLE9=Het Leven Is Te Mooi
TTITLE10=Het Lag Echt Niet Aan Mij
TTITLE11=Als Een Leeuw In Een Kooi
TTITLE12=Lach En Leef Je Dromen
TTITLE13=Feestje
TTITLE14=Lieveling
TTITLE15=Ga Maar Vast Slapen
EXTD=
EXTT0=
EXTT1=
EXTT2=
EXTT3=
EXTT4=
EXTT5=
EXTT6=
EXTT7=
EXTT8=
EXTT9=
EXTT10=
EXTT11=
EXTT12=
EXTT13=
EXTT14=
EXTT15=
PLAYORDER=
